<?xml version="1.0"?>
<svg xmlns="http://www.w3.org/2000/svg" xmlns:xlink="http://www.w3.org/1999/xlink" xmlns:svgjs="http://svgjs.com/svgjs" version="1.1" width="512" height="512" x="0" y="0" viewBox="0 0 682.66669 682.66669" style="enable-background:new 0 0 512 512" xml:space="preserve"><g><path xmlns="http://www.w3.org/2000/svg" d="m62.484375 322.5c3.292969 0 6.515625-1.335938 8.839844-3.664062 2.324219-2.320313 3.660156-5.550782 3.660156-8.835938s-1.332031-6.515625-3.660156-8.835938c-2.324219-2.328124-5.546875-3.664062-8.839844-3.664062-3.285156 0-6.507813 1.335938-8.832031 3.664062-2.328125 2.320313-3.667969 5.550782-3.667969 8.835938 0 3.300781 1.339844 6.515625 3.667969 8.835938 2.324218 2.328124 5.546875 3.664062 8.832031 3.664062zm0 0" fill="#ffffff" data-original="#000000" style=""/><path xmlns="http://www.w3.org/2000/svg" d="m275.25 565h-.253906c-6.902344 0-12.5 5.59375-12.5 12.5s5.597656 12.5 12.5 12.5h.253906c6.902344 0 12.5-5.59375 12.5-12.5s-5.597656-12.5-12.5-12.5zm0 0" fill="#ffffff" data-original="#000000" style=""/><path xmlns="http://www.w3.org/2000/svg" d="m471.507812 278.160156h61.882813c6.898437 0 12.5-5.597656 12.5-12.5 0-6.90625-5.601563-12.5-12.5-12.5h-61.882813c-6.902343 0-12.5 5.59375-12.5 12.5 0 6.902344 5.597657 12.5 12.5 12.5zm0 0" fill="#ffffff" data-original="#000000" style=""/><path xmlns="http://www.w3.org/2000/svg" d="m583.4375 215h-78.445312v-149.375c0-36.1875-29.441407-65.625-65.625-65.625h-373.742188c-36.1875 0-65.625 29.4375-65.625 65.625v508.75c0 36.1875 29.4375 65.625 65.625 65.625h517.8125c31.1875 0 56.5625-25.375 56.5625-56.5625v-311.875c0-31.1875-25.375-56.5625-56.5625-56.5625zm-193.4375 192.679688 62.113281 62.109374h-12.558593c-6.902344 0-12.5 5.601563-12.5 12.5 0 6.90625 5.597656 12.5 12.5 12.5h42.734374c6.90625 0 12.5-5.59375 12.5-12.5v-42.734374c0-6.902344-5.59375-12.5-12.5-12.5-6.902343 0-12.5 5.597656-12.5 12.5v12.558593l-79.789062-79.792969v-55.835937h225v227.460937h-225zm225-136.117188v19.921875h-225v-19.921875c0-17.402344 14.160156-31.5625 31.5625-31.5625h161.875c17.402344 0 31.5625 14.160156 31.5625 31.5625zm-590 302.8125v-508.75c0-22.402344 18.222656-40.625 40.625-40.625h373.742188c22.398437 0 40.625 18.222656 40.625 40.625v149.375h-25v-135c0-6.90625-5.601563-12.5-12.5-12.5h-380c-6.90625 0-12.5 5.59375-12.5 12.5v180c0 6.90625 5.59375 12.5 12.5 12.5 6.898437 0 12.5-5.59375 12.5-12.5v-167.5h355v122.5h-8.429688c-31.1875 0-56.5625 25.375-56.5625 56.5625v75.757812l-80.226562-80.21875h10c6.902343 0 12.5-5.601562 12.5-12.5 0-6.90625-5.597657-12.5-12.5-12.5h-40.171876c-6.90625 0-12.5 5.59375-12.5 12.5v40.167969c0 6.90625 5.59375 12.5 12.5 12.5 6.898438 0 12.5-5.59375 12.5-12.5v-9.996093l97.898438 97.90625v144.820312h-290.007812v-167.5c0-6.90625-5.601563-12.5-12.5-12.5-6.90625 0-12.5 5.59375-12.5 12.5v180c0 6.90625 5.59375 12.5 12.5 12.5h302.507812v30.9375c0 11.679688 3.558594 22.539062 9.648438 31.5625h-309.023438c-22.402344 0-40.625-18.222656-40.625-40.625zm558.4375 40.625h-161.875c-17.402344 0-31.5625-14.160156-31.5625-31.5625v-14.492188h225v14.492188c0 17.402344-14.160156 31.5625-31.5625 31.5625zm0 0" fill="#ffffff" data-original="#000000" style=""/><path xmlns="http://www.w3.org/2000/svg" d="m502.65625 579.164062h-.160156c-6.90625 0-12.5 5.601563-12.5 12.5 0 6.90625 5.59375 12.5 12.5 12.5h.160156c6.90625 0 12.5-5.59375 12.5-12.5 0-6.898437-5.59375-12.5-12.5-12.5zm0 0" fill="#ffffff" data-original="#000000" style=""/></g></svg>
