<svg xmlns="http://www.w3.org/2000/svg" width="313.098" height="93.492"><g data-name="Group 2065" fill="#fff"><path data-name="Path 8" d="M62.838 91.861a1.217 1.217 0 01-.36.9 1.319 1.319 0 01-.978.36 1.35 1.35 0 01-1.2-.668l-4.6-7.382h-3.906v6.66a1.366 1.366 0 01-.389.989 1.331 1.331 0 01-1 .4 1.37 1.37 0 01-1.39-1.39V73.623a1.335 1.335 0 01.4-1 1.371 1.371 0 01.989-.388h4.814a7.471 7.471 0 013.544.83 6 6 0 012.431 2.327 6.672 6.672 0 01.871 3.421 5.975 5.975 0 01-3.584 5.592l4.092 6.578a1.65 1.65 0 01.266.878zM55.217 82.5a4.38 4.38 0 002.995-1.03 3.37 3.37 0 001.175-2.661 3.815 3.815 0 00-1.175-2.887 4.165 4.165 0 00-2.995-1.125h-3.424v7.7z"/><path data-name="Path 9" d="M69.187 92.717a1.345 1.345 0 01-.4-.989V73.623a1.335 1.335 0 01.4-1 1.371 1.371 0 01.989-.388h12.086a1.363 1.363 0 01.99.362 1.261 1.261 0 01.374.949 1.185 1.185 0 01-.374.909 1.394 1.394 0 01-.99.348h-10.7v6.5h7.676a1.375 1.375 0 01.975.36 1.291 1.291 0 010 1.845 1.375 1.375 0 01-.975.36h-7.676v6.686h10.7a1.394 1.394 0 01.99.348 1.183 1.183 0 01.374.908 1.263 1.263 0 01-.374.952 1.362 1.362 0 01-.99.36H70.176a1.346 1.346 0 01-.989-.405z"/><path data-name="Path 10" d="M91.56 92.21a6.384 6.384 0 01-2.931-3.076 1.5 1.5 0 01-.134-.537.994.994 0 01.3-.708 1.515 1.515 0 01.8-.415.95.95 0 01.267-.026 1.449 1.449 0 01.816.255 1.54 1.54 0 01.577.682 3.919 3.919 0 001.9 1.764 6.778 6.778 0 003.128.723 6.013 6.013 0 003.4-.923 2.883 2.883 0 001.39-2.527 3.419 3.419 0 00-1.178-2.609 6.1 6.1 0 00-3.584-1.323 9.183 9.183 0 01-5.214-1.939 5.106 5.106 0 01-1.9-4.051 4.655 4.655 0 01.975-2.957 6.14 6.14 0 012.675-1.9 10.533 10.533 0 013.81-.656 7.488 7.488 0 013.88.937 7.977 7.977 0 012.673 2.676 1.8 1.8 0 01.322.96 1.129 1.129 0 01-.537.963 1.257 1.257 0 01-.693.189 1.448 1.448 0 01-.749-.2 1.388 1.388 0 01-.537-.546 5.074 5.074 0 00-1.805-1.834 5.413 5.413 0 00-2.739-.626 6.1 6.1 0 00-3.291.789 2.533 2.533 0 00-1.256 2.287 2.908 2.908 0 001.123 2.324 7.661 7.661 0 004.01 1.23 8.416 8.416 0 014.977 1.939 5.517 5.517 0 011.764 4.265 5.312 5.312 0 01-1.045 3.306 6.284 6.284 0 01-2.765 2.057 9.971 9.971 0 01-3.706.682 9.586 9.586 0 01-4.723-1.175z"/><path data-name="Path 11" d="M114.478 92.021a9.527 9.527 0 01-3.755-3.81 12.157 12.157 0 010-11.085 9.582 9.582 0 013.755-3.8 11.817 11.817 0 0111.019 0 9.683 9.683 0 013.772 3.8 12.06 12.06 0 010 11.085 9.644 9.644 0 01-3.758 3.81 11.837 11.837 0 01-11.033 0zm9.617-2.231a7.639 7.639 0 002.835-2.957 9.072 9.072 0 000-8.343 7.546 7.546 0 00-2.823-2.943 8.409 8.409 0 00-8.21 0 7.518 7.518 0 00-2.82 2.943 9.048 9.048 0 000 8.343 7.6 7.6 0 002.835 2.957 8.277 8.277 0 008.183 0z"/><path data-name="Path 12" d="M151.175 91.861a1.217 1.217 0 01-.36.9 1.319 1.319 0 01-.978.36 1.35 1.35 0 01-1.2-.668l-4.6-7.382h-3.906v6.66a1.37 1.37 0 01-.388.989 1.4 1.4 0 01-2.392-.989V73.623a1.335 1.335 0 01.4-1 1.371 1.371 0 01.989-.388h4.815a7.469 7.469 0 013.543.83 6 6 0 012.431 2.327 6.672 6.672 0 01.871 3.421 5.97 5.97 0 01-3.584 5.592l4.092 6.578a1.65 1.65 0 01.267.878zm-7.62-9.361a4.379 4.379 0 002.994-1.03 3.37 3.37 0 001.175-2.661 3.815 3.815 0 00-1.175-2.887 4.165 4.165 0 00-2.994-1.125h-3.425v7.7z"/><path data-name="Path 13" d="M171.049 72.597a1.283 1.283 0 01-.923 2.206h-5.748v16.929a1.392 1.392 0 11-2.783 0V74.797h-5.774a1.284 1.284 0 110-2.568h14.3a1.249 1.249 0 01.928.368z"/><path data-name="Path 14" d="M198.204 91.969a1.056 1.056 0 01-.374.722 1.233 1.233 0 01-.856.427 1.381 1.381 0 01-.856-.427l-2.942-2.942-.134.159a12.316 12.316 0 01-3.143 2.647 7.237 7.237 0 01-3.647.937 5.952 5.952 0 01-4.121-1.39 4.878 4.878 0 01-1.549-3.824 5.015 5.015 0 011.1-3.117 20.147 20.147 0 013.369-3.25l.159-.1-1.39-1.393a5.869 5.869 0 01-1.872-4.144 4.288 4.288 0 01.642-2.3 4.445 4.445 0 011.764-1.631 5.338 5.338 0 012.513-.589 5.216 5.216 0 012.542.615 4.607 4.607 0 012.406 4.092 4.968 4.968 0 01-.787 2.69 12.3 12.3 0 01-2.608 2.632l4.814 4.814 2.138-2.272a1.369 1.369 0 01.911-.563.9.9 0 01.613.322 1.167 1.167 0 01.429.856 1.243 1.243 0 01-.374.856l-2.194 2.327 2.969 2.969a1.326 1.326 0 01.478.877zm-6.552-3.746l-5.026-5-.348.267a12.487 12.487 0 00-2.368 2.353 3.919 3.919 0 00-.815 2.327 2.95 2.95 0 00.815 2.261 3.3 3.3 0 002.342.76 5.3 5.3 0 002.687-.682 11.677 11.677 0 002.527-2.072zm-4.681-7.861l.3-.215a6.776 6.776 0 001.765-1.884 4.087 4.087 0 00.481-1.86 2.458 2.458 0 00-.708-1.79 2.6 2.6 0 00-1.941-.723 2.656 2.656 0 00-1.883.682 2.157 2.157 0 00-.737 1.643 3.868 3.868 0 001.311 2.73z"/><path data-name="Path 15" d="M211.086 92.21a6.384 6.384 0 01-2.931-3.076 1.5 1.5 0 01-.134-.537.994.994 0 01.3-.708 1.515 1.515 0 01.8-.415.941.941 0 01.267-.026 1.451 1.451 0 01.816.255 1.54 1.54 0 01.577.682 3.919 3.919 0 001.9 1.764 6.778 6.778 0 003.128.723 6.015 6.015 0 003.4-.923 2.883 2.883 0 001.39-2.527 3.419 3.419 0 00-1.178-2.609 6.1 6.1 0 00-3.584-1.323 9.183 9.183 0 01-5.214-1.939 5.1 5.1 0 01-1.9-4.051 4.655 4.655 0 01.975-2.957 6.14 6.14 0 012.675-1.9 10.533 10.533 0 013.81-.656 7.488 7.488 0 013.88.937 8 8 0 012.673 2.676 1.806 1.806 0 01.322.96 1.129 1.129 0 01-.537.963 1.26 1.26 0 01-.694.189 1.444 1.444 0 01-.748-.2 1.388 1.388 0 01-.537-.546 5.082 5.082 0 00-1.805-1.834 5.416 5.416 0 00-2.739-.626 6.1 6.1 0 00-3.291.789 2.533 2.533 0 00-1.257 2.287 2.911 2.911 0 001.123 2.324 7.669 7.669 0 004.011 1.23 8.41 8.41 0 014.976 1.939 5.515 5.515 0 011.765 4.265 5.318 5.318 0 01-1.045 3.306 6.29 6.29 0 01-2.765 2.057 9.971 9.971 0 01-3.706.682 9.583 9.583 0 01-4.723-1.175z"/><path data-name="Path 16" d="M230.476 92.717a1.345 1.345 0 01-.4-.989V73.623a1.335 1.335 0 01.4-1 1.37 1.37 0 01.989-.388h5.348a7.1 7.1 0 013.543.882 6.218 6.218 0 012.435 2.461 7.33 7.33 0 01.868 3.583 6.915 6.915 0 01-.868 3.477 6.127 6.127 0 01-2.435 2.382 7.271 7.271 0 01-3.543.853h-3.958v5.859a1.37 1.37 0 01-.389.989 1.331 1.331 0 01-1 .4 1.345 1.345 0 01-.99-.404zm6.337-9.413a4.083 4.083 0 002.995-1.164 4.007 4.007 0 001.178-2.983 4.338 4.338 0 00-1.178-3.128 3.96 3.96 0 00-2.995-1.23h-3.958v8.5z"/><path data-name="Path 17" d="M264.084 91.754a1.314 1.314 0 01-.4.963 1.352 1.352 0 01-.99.4 1.419 1.419 0 01-.763-.226 1.292 1.292 0 01-.522-.63l-1.5-3.743h-9.6l-1.526 3.743a1.481 1.481 0 01-.534.63 1.356 1.356 0 01-.749.226 1.282 1.282 0 01-.975-.415 1.369 1.369 0 01-.388-.975 1.717 1.717 0 01.133-.615l7.516-17.945a1.355 1.355 0 011.308-.937 1.3 1.3 0 011.312.937l7.542 18a1.752 1.752 0 01.136.587zm-12.837-5.537h7.73l-3.824-9.52z"/><path data-name="Path 18" d="M7.456 49.239a15.46 15.46 0 01-7.131-7.488 3.525 3.525 0 01-.325-1.3 2.418 2.418 0 01.713-1.724 3.65 3.65 0 011.955-1.011 2.334 2.334 0 01.653-.067 3.561 3.561 0 011.986.622 3.715 3.715 0 011.4 1.661 9.57 9.57 0 004.625 4.3 16.531 16.531 0 007.619 1.76 14.628 14.628 0 008.272-2.248 7.023 7.023 0 003.389-6.156 8.337 8.337 0 00-2.866-6.35q-2.867-2.64-8.728-3.226-8.078-.78-12.7-4.721a12.425 12.425 0 01-4.626-9.866 11.3 11.3 0 012.378-7.2 14.86 14.86 0 016.513-4.626 25.605 25.605 0 019.28-1.594 18.229 18.229 0 019.445 2.279 19.45 19.45 0 016.513 6.513 4.417 4.417 0 01.781 2.346 2.758 2.758 0 01-1.3 2.343 3.1 3.1 0 01-1.693.456 3.6 3.6 0 01-1.827-.487 3.354 3.354 0 01-1.3-1.336 12.422 12.422 0 00-4.4-4.463 13.19 13.19 0 00-6.679-1.53 14.9 14.9 0 00-8.011 1.922 6.183 6.183 0 00-3.06 5.569 7.089 7.089 0 002.735 5.668q2.734 2.28 9.771 2.993 7.812.784 12.113 4.725a13.419 13.419 0 014.3 10.389 12.946 12.946 0 01-2.541 8.043 15.284 15.284 0 01-6.742 5.014 24.246 24.246 0 01-9.022 1.661 23.319 23.319 0 01-11.49-2.871z"/><path data-name="Path 19" d="M110.542 50.479a3.269 3.269 0 01-.979-2.41v-44.1a3.24 3.24 0 01.979-2.442 3.329 3.329 0 012.41-.943h13.025a17.246 17.246 0 018.627 2.151 15.146 15.146 0 015.93 5.993 17.8 17.8 0 012.117 8.725 16.813 16.813 0 01-2.117 8.471 14.955 14.955 0 01-5.93 5.795 17.66 17.66 0 01-8.629 2.085h-9.64v14.265a3.339 3.339 0 01-.944 2.41 3.5 3.5 0 01-4.851 0zm15.435-22.93a9.937 9.937 0 007.293-2.83 9.777 9.777 0 002.866-7.266 10.567 10.567 0 00-2.866-7.618 9.65 9.65 0 00-7.293-3h-9.64v20.711z"/><path data-name="Path 20" d="M193.694 1.463a3.128 3.128 0 01-2.248 5.375h-14v41.231a3.386 3.386 0 11-6.771 0V6.838h-14.071a3.126 3.126 0 110-6.251h34.846a3.056 3.056 0 012.244.876z"/><path data-name="Path 21" d="M211.058 50.479a3.273 3.273 0 01-.979-2.41v-44.1a3.244 3.244 0 01.979-2.442 3.371 3.371 0 015.8 2.442v18.693h30.224V3.972a3.252 3.252 0 01.975-2.442 3.335 3.335 0 012.41-.943 3.227 3.227 0 012.378.943 3.309 3.309 0 01.944 2.442v44.1a3.308 3.308 0 01-.944 2.442 3.228 3.228 0 01-2.378.944 3.332 3.332 0 01-3.385-3.386v-19.41h-30.228v19.41a3.339 3.339 0 01-.944 2.41 3.5 3.5 0 01-4.852 0z"/><path data-name="Path 22" d="M93.763 46.697L75.404 2.866a3.165 3.165 0 00-3.2-2.279 3.311 3.311 0 00-3.191 2.279l-18.3 43.7a4.2 4.2 0 00-.325 1.5 3.358 3.358 0 00.943 2.375 3.11 3.11 0 002.379 1.011 3.259 3.259 0 001.823-.555 3.643 3.643 0 001.3-1.53l3.71-9.117 2.28-5.6 9.509-23.188 9.315 23.188 2.279 5.6 3.647 9.117a3.143 3.143 0 001.272 1.53 3.415 3.415 0 001.855.555 3.275 3.275 0 002.41-.976 3.21 3.21 0 00.979-2.346 4.1 4.1 0 00-.326-1.433z"/><path data-name="Path 23" d="M312.77 46.697L294.404 2.866a3.165 3.165 0 00-3.2-2.279 3.311 3.311 0 00-3.191 2.279l-18.3 43.7a4.2 4.2 0 00-.325 1.5 3.359 3.359 0 00.944 2.375 3.108 3.108 0 002.378 1.011 3.259 3.259 0 001.823-.555 3.643 3.643 0 001.3-1.53l3.711-9.117 2.279-5.6 9.509-23.188 9.315 23.188 2.279 5.6 3.647 9.117a3.148 3.148 0 001.272 1.53 3.415 3.415 0 001.855.555 3.275 3.275 0 002.41-.976 3.206 3.206 0 00.979-2.346 4.116 4.116 0 00-.319-1.433z"/></g></svg>