<svg xmlns="http://www.w3.org/2000/svg" width="530.792" height="126.778"><g data-name="Group 2064" fill="#fff"><path data-name="Path 1" d="M89.566 126.778A89.666 89.666 0 010 37.213a5.35 5.35 0 0110.7 0 78.87 78.87 0 10157.741 0 5.35 5.35 0 0110.7 0 89.666 89.666 0 01-89.575 89.565z"/><path data-name="Path 2" d="M433.56 126.778a73.608 73.608 0 01-73.525-73.524 5.35 5.35 0 0110.7 0 62.829 62.829 0 10125.658 0 5.35 5.35 0 0110.7 0 73.608 73.608 0 01-73.533 73.524z"/><path data-name="Path 3" d="M83.432 76.429a52.194 52.194 0 01-52.134-52.135 5.347 5.347 0 0110.694 0 41.44 41.44 0 1082.88 0 5.35 5.35 0 0110.7 0 52.194 52.194 0 01-52.14 52.135z"/><path data-name="Path 4" d="M498.933 78.889a31.9 31.9 0 01-31.859-31.859 5.35 5.35 0 0110.7 0 21.164 21.164 0 1042.327 0 5.35 5.35 0 0110.7 0 31.9 31.9 0 01-31.868 31.859z"/><path data-name="Path 5" d="M298.996 45.941c-21.744 0-39.435-18.21-39.435-40.593a5.35 5.35 0 1110.7 0c0 16.486 12.893 29.9 28.74 29.9s28.741-13.413 28.741-29.9a5.348 5.348 0 1110.695 0c-.005 22.383-17.697 40.593-39.441 40.593z"/><path data-name="Path 6" d="M194.281 126.778A110.188 110.188 0 0184.218 16.715a5.347 5.347 0 1110.694 0 99.368 99.368 0 10198.737 0 5.347 5.347 0 1110.694 0 110.187 110.187 0 01-110.062 110.063z"/><path data-name="Path 7" d="M306.451 126.778A110.187 110.187 0 01196.394 16.715a5.347 5.347 0 1110.694 0 99.368 99.368 0 10198.736 0 5.35 5.35 0 0110.7 0 110.188 110.188 0 01-110.073 110.063z"/></g></svg>