<svg xmlns="http://www.w3.org/2000/svg" width="204.905" height="104.794"><g data-name="Group 28"><g data-name="Group 9"><g data-name="Group 2"><path data-name="Path 24" d="M34.576 48.94A34.614 34.614 0 010 14.365a2.064 2.064 0 014.129 0 30.447 30.447 0 1060.894 0 2.064 2.064 0 014.129 0A34.614 34.614 0 0134.576 48.94z" fill="#009e47"/></g><g data-name="Group 3"><path data-name="Path 25" d="M167.37 48.941a28.416 28.416 0 01-28.383-28.387 2.065 2.065 0 014.129 0 24.254 24.254 0 1048.508 0 2.064 2.064 0 014.129 0 28.415 28.415 0 01-28.383 28.387z" fill="#009e47"/></g><g data-name="Group 4"><path data-name="Path 26" d="M32.208 29.504A20.149 20.149 0 0112.082 9.378a2.064 2.064 0 014.128 0 16 16 0 1031.995 0 2.064 2.064 0 014.129 0 20.149 20.149 0 01-20.126 20.126z" fill="#009e47"/></g><g data-name="Group 5"><path data-name="Path 27" d="M192.607 30.454a12.313 12.313 0 01-12.3-12.3 2.065 2.065 0 014.129 0 8.17 8.17 0 1016.34 0 2.064 2.064 0 014.129 0 12.313 12.313 0 01-12.298 12.3z" fill="#009e47"/></g><g data-name="Group 6"><path data-name="Path 28" d="M115.423 17.735A15.469 15.469 0 01100.2 2.067a2.064 2.064 0 114.129 0 11.1 11.1 0 1022.19 0 2.064 2.064 0 114.129 0 15.47 15.47 0 01-15.225 15.668z" fill="#009e47"/></g><g data-name="Group 7"><path data-name="Path 29" d="M74.999 48.94A42.536 42.536 0 0132.511 6.452a2.064 2.064 0 114.128 0 38.36 38.36 0 1076.72 0 2.064 2.064 0 114.128 0A42.536 42.536 0 0174.999 48.94z" fill="#009e47"/></g><g data-name="Group 8"><path data-name="Path 30" d="M118.303 48.94A42.536 42.536 0 0175.815 6.452a2.064 2.064 0 014.128 0 38.36 38.36 0 1076.719 0 2.064 2.064 0 014.129 0 42.537 42.537 0 01-42.488 42.488z" fill="#009e47"/></g></g><g data-name="Group 20"><g data-name="Group 10"><path data-name="Path 31" d="M66.277 104.165a.47.47 0 01-.139.346.509.509 0 01-.378.139.521.521 0 01-.464-.258l-1.776-2.85h-1.508v2.571a.527.527 0 01-.15.382.514.514 0 01-.386.155.529.529 0 01-.537-.537v-6.989a.515.515 0 01.155-.388.529.529 0 01.382-.15h1.855a2.884 2.884 0 011.368.32 2.318 2.318 0 01.938.9 2.575 2.575 0 01.336 1.321 2.306 2.306 0 01-1.384 2.159l1.58 2.539a.637.637 0 01.108.34zm-2.946-3.612a1.691 1.691 0 001.156-.4 1.3 1.3 0 00.454-1.027 1.473 1.473 0 00-.454-1.114 1.608 1.608 0 00-1.156-.433h-1.322v2.974z" fill="#fff"/></g><g data-name="Group 11"><path data-name="Path 32" d="M68.728 104.495a.519.519 0 01-.155-.382v-6.989a.515.515 0 01.155-.388.53.53 0 01.382-.15h4.666a.526.526 0 01.382.14.487.487 0 01.144.366.458.458 0 01-.144.351.538.538 0 01-.382.134h-4.129v2.509h2.963a.531.531 0 01.376.139.5.5 0 010 .712.531.531 0 01-.376.139h-2.963v2.581h4.129a.538.538 0 01.382.134.457.457 0 01.144.35.488.488 0 01-.144.367.526.526 0 01-.382.139H69.11a.52.52 0 01-.382-.152z" fill="#fff"/></g><g data-name="Group 12"><path data-name="Path 33" d="M77.364 104.301a2.464 2.464 0 01-1.131-1.187.581.581 0 01-.052-.207.384.384 0 01.114-.273.585.585 0 01.309-.16.367.367 0 01.1-.01.559.559 0 01.315.1.594.594 0 01.223.263 1.513 1.513 0 00.733.681 2.616 2.616 0 001.207.279 2.322 2.322 0 001.312-.356 1.113 1.113 0 00.537-.976 1.32 1.32 0 00-.455-1.007 2.354 2.354 0 00-1.384-.511 3.545 3.545 0 01-2.013-.749 1.971 1.971 0 01-.733-1.564 1.8 1.8 0 01.376-1.142 2.37 2.37 0 011.033-.732 4.066 4.066 0 011.471-.253 2.891 2.891 0 011.5.362 3.08 3.08 0 011.032 1.033.694.694 0 01.124.371.436.436 0 01-.207.372.485.485 0 01-.267.073.559.559 0 01-.289-.078.537.537 0 01-.207-.211 1.959 1.959 0 00-.7-.708 2.09 2.09 0 00-1.057-.242 2.356 2.356 0 00-1.27.3.978.978 0 00-.485.883 1.123 1.123 0 00.434.9 2.958 2.958 0 001.548.475 3.249 3.249 0 011.921.749 2.13 2.13 0 01.681 1.646 2.051 2.051 0 01-.4 1.276 2.426 2.426 0 01-1.067.794 3.849 3.849 0 01-1.431.263 3.7 3.7 0 01-1.822-.454z" fill="#fff"/></g><g data-name="Group 13"><path data-name="Path 34" d="M86.212 104.227a3.678 3.678 0 01-1.45-1.471 4.693 4.693 0 010-4.279 3.7 3.7 0 011.45-1.466 4.562 4.562 0 014.254 0 3.738 3.738 0 011.456 1.466 4.656 4.656 0 010 4.279 3.723 3.723 0 01-1.451 1.471 4.57 4.57 0 01-4.259 0zm3.713-.861a2.948 2.948 0 001.094-1.141 3.5 3.5 0 000-3.221 2.913 2.913 0 00-1.09-1.136 3.247 3.247 0 00-3.169 0 2.9 2.9 0 00-1.089 1.136 3.493 3.493 0 000 3.221 2.932 2.932 0 001.094 1.141 3.195 3.195 0 003.159 0z" fill="#fff"/></g><g data-name="Group 14"><path data-name="Path 35" d="M100.378 104.165a.47.47 0 01-.139.346.509.509 0 01-.378.139.521.521 0 01-.464-.258l-1.776-2.85h-1.508v2.571a.529.529 0 01-.15.382.539.539 0 01-.923-.382v-6.989a.515.515 0 01.155-.388.529.529 0 01.382-.15h1.859a2.883 2.883 0 011.368.32 2.318 2.318 0 01.938.9 2.575 2.575 0 01.336 1.321 2.3 2.3 0 01-1.383 2.159l1.58 2.539a.637.637 0 01.103.34zm-2.942-3.614a1.69 1.69 0 001.156-.4 1.3 1.3 0 00.454-1.027 1.473 1.473 0 00-.454-1.114 1.608 1.608 0 00-1.156-.433h-1.322v2.976z" fill="#fff"/></g><g data-name="Group 15"><path data-name="Path 36" d="M108.05 96.727a.5.5 0 01-.356.852h-2.219v6.535a.537.537 0 11-1.074 0v-6.535h-2.229a.5.5 0 110-.991h5.522a.482.482 0 01.356.139z" fill="#fff"/></g><g data-name="Group 16"><path data-name="Path 37" d="M118.535 104.207a.407.407 0 01-.144.279.476.476 0 01-.33.165.533.533 0 01-.33-.165l-1.136-1.136-.052.061a4.755 4.755 0 01-1.213 1.022 2.794 2.794 0 01-1.408.362 2.3 2.3 0 01-1.591-.537 1.883 1.883 0 01-.6-1.476 1.936 1.936 0 01.423-1.2 7.779 7.779 0 011.3-1.255l.061-.04-.537-.538a2.266 2.266 0 01-.723-1.6 1.655 1.655 0 01.248-.888 1.716 1.716 0 01.681-.63 2.061 2.061 0 01.97-.227 2.014 2.014 0 01.981.237 1.778 1.778 0 01.929 1.58 1.918 1.918 0 01-.3 1.038 4.744 4.744 0 01-1.007 1.016l1.858 1.858.825-.877a.529.529 0 01.352-.217.347.347 0 01.237.124.451.451 0 01.166.33.48.48 0 01-.144.33l-.847.9 1.146 1.146a.512.512 0 01.185.338zm-2.529-1.446l-1.94-1.93-.134.1a4.822 4.822 0 00-.914.908 1.513 1.513 0 00-.315.9 1.139 1.139 0 00.315.873 1.274 1.274 0 00.9.293 2.045 2.045 0 001.037-.263 4.507 4.507 0 00.975-.8zm-1.807-3.035l.114-.083a2.616 2.616 0 00.681-.727 1.578 1.578 0 00.186-.718.949.949 0 00-.273-.691 1 1 0 00-.749-.279 1.025 1.025 0 00-.727.263.833.833 0 00-.285.634 1.493 1.493 0 00.506 1.054z" fill="#fff"/></g><g data-name="Group 17"><path data-name="Path 38" d="M123.506 104.301a2.464 2.464 0 01-1.131-1.187.58.58 0 01-.052-.207.384.384 0 01.114-.273.585.585 0 01.309-.16.363.363 0 01.1-.01.56.56 0 01.315.1.6.6 0 01.223.263 1.513 1.513 0 00.733.681 2.616 2.616 0 001.208.279 2.323 2.323 0 001.312-.356 1.113 1.113 0 00.537-.976 1.319 1.319 0 00-.455-1.007 2.355 2.355 0 00-1.384-.511 3.545 3.545 0 01-2.013-.749 1.97 1.97 0 01-.733-1.564 1.8 1.8 0 01.376-1.142 2.369 2.369 0 011.033-.732 4.066 4.066 0 011.471-.253 2.89 2.89 0 011.5.362 3.087 3.087 0 011.032 1.033.7.7 0 01.124.371.436.436 0 01-.207.372.486.486 0 01-.268.073.558.558 0 01-.289-.078.537.537 0 01-.207-.211 1.962 1.962 0 00-.7-.708 2.091 2.091 0 00-1.057-.242 2.355 2.355 0 00-1.27.3.978.978 0 00-.485.883 1.124 1.124 0 00.434.9 2.961 2.961 0 001.548.475 3.246 3.246 0 011.921.749 2.129 2.129 0 01.681 1.646 2.053 2.053 0 01-.4 1.276 2.428 2.428 0 01-1.067.794 3.849 3.849 0 01-1.431.263 3.7 3.7 0 01-1.822-.454z" fill="#fff"/></g><g data-name="Group 18"><path data-name="Path 39" d="M130.992 104.495a.519.519 0 01-.155-.382v-6.989a.516.516 0 01.155-.388.529.529 0 01.382-.15h2.065a2.742 2.742 0 011.368.34 2.4 2.4 0 01.94.95 2.83 2.83 0 01.335 1.383 2.67 2.67 0 01-.335 1.342 2.365 2.365 0 01-.94.92 2.807 2.807 0 01-1.368.329h-1.528v2.262a.529.529 0 01-.15.382.514.514 0 01-.386.155.519.519 0 01-.383-.154zm2.446-3.634a1.576 1.576 0 001.156-.449 1.547 1.547 0 00.455-1.152 1.675 1.675 0 00-.455-1.208 1.529 1.529 0 00-1.156-.475h-1.528v3.283z" fill="#fff"/></g><g data-name="Group 19"><path data-name="Path 40" d="M143.965 104.124a.507.507 0 01-.154.372.522.522 0 01-.382.155.548.548 0 01-.294-.087.5.5 0 01-.2-.243l-.578-1.445h-3.706l-.589 1.445a.572.572 0 01-.206.243.524.524 0 01-.289.087.5.5 0 01-.376-.16.529.529 0 01-.15-.376.663.663 0 01.051-.237l2.9-6.927a.523.523 0 01.5-.362.5.5 0 01.506.362l2.912 6.948a.677.677 0 01.055.225zm-4.956-2.137h2.984l-1.476-3.675z" fill="#fff"/></g></g><g data-name="Group 27"><g data-name="Group 21"><path data-name="Path 41" d="M44.897 87.711a5.968 5.968 0 01-2.753-2.891 1.362 1.362 0 01-.125-.5.933.933 0 01.275-.666 1.409 1.409 0 01.755-.39.9.9 0 01.252-.026 1.375 1.375 0 01.767.24 1.435 1.435 0 01.54.641 3.694 3.694 0 001.785 1.659 6.381 6.381 0 002.941.679 5.647 5.647 0 003.193-.868 2.711 2.711 0 001.308-2.376 3.218 3.218 0 00-1.106-2.451 5.715 5.715 0 00-3.369-1.245 8.649 8.649 0 01-4.9-1.822 4.8 4.8 0 01-1.786-3.809 4.361 4.361 0 01.918-2.779 5.737 5.737 0 012.514-1.786 9.885 9.885 0 013.582-.615 7.037 7.037 0 013.646.88 7.508 7.508 0 012.514 2.514 1.705 1.705 0 01.3.906 1.065 1.065 0 01-.5.9 1.2 1.2 0 01-.654.176 1.389 1.389 0 01-.705-.188 1.294 1.294 0 01-.5-.516 4.8 4.8 0 00-1.7-1.723 5.092 5.092 0 00-2.578-.591 5.753 5.753 0 00-3.093.742 2.387 2.387 0 00-1.181 2.15 2.737 2.737 0 001.056 2.188 7.224 7.224 0 003.772 1.155 7.887 7.887 0 014.676 1.824 5.18 5.18 0 011.66 4.01 5 5 0 01-.981 3.1 5.9 5.9 0 01-2.6 1.936 9.36 9.36 0 01-3.483.641 9 9 0 01-4.44-1.099z" fill="#fff"/></g><g data-name="Group 22"><path data-name="Path 42" d="M84.692 88.19a1.262 1.262 0 01-.378-.93V70.24a1.251 1.251 0 01.378-.943 1.285 1.285 0 01.93-.364h5.033a6.658 6.658 0 013.331.829 5.847 5.847 0 012.289 2.314 6.87 6.87 0 01.817 3.368 6.491 6.491 0 01-.817 3.27 5.773 5.773 0 01-2.289 2.237 6.818 6.818 0 01-3.331.8h-3.721v5.507a1.289 1.289 0 01-.364.93 1.352 1.352 0 01-1.873 0zm5.963-8.85a3.836 3.836 0 002.815-1.093 3.774 3.774 0 001.106-2.8 4.079 4.079 0 00-1.106-2.941 3.725 3.725 0 00-2.815-1.166h-3.721v8z" fill="#fff"/></g><g data-name="Group 23"><path data-name="Path 43" d="M116.796 69.268a1.208 1.208 0 01-.868 2.075h-5.406V87.26a1.307 1.307 0 11-2.614 0V71.34h-5.432a1.207 1.207 0 110-2.413h13.452a1.18 1.18 0 01.868.341z" fill="#fff"/></g><g data-name="Group 24"><path data-name="Path 44" d="M123.495 88.19a1.263 1.263 0 01-.378-.93V70.24a1.252 1.252 0 01.378-.943 1.3 1.3 0 012.237.943v7.216H137.4V70.24a1.255 1.255 0 01.376-.943 1.287 1.287 0 01.93-.364 1.246 1.246 0 01.918.364 1.277 1.277 0 01.364.943v17.02a1.277 1.277 0 01-.364.943 1.246 1.246 0 01-.918.364 1.286 1.286 0 01-1.307-1.307v-7.493h-11.667v7.493a1.289 1.289 0 01-.364.93 1.352 1.352 0 01-1.873 0z" fill="#fff"/></g><g data-name="Group 25"><path data-name="Path 45" d="M78.215 86.731L71.126 69.81a1.222 1.222 0 00-1.233-.88 1.278 1.278 0 00-1.232.88l-7.065 16.872a1.621 1.621 0 00-.125.578 1.3 1.3 0 00.364.917 1.2 1.2 0 00.918.39 1.258 1.258 0 00.7-.214 1.406 1.406 0 00.5-.591l1.432-3.52.88-2.162 3.671-8.951 3.6 8.951.88 2.162 1.408 3.52a1.213 1.213 0 00.491.591 1.318 1.318 0 00.716.214 1.264 1.264 0 00.93-.377 1.239 1.239 0 00.378-.906 1.581 1.581 0 00-.124-.553z" fill="#fff"/></g><g data-name="Group 26"><path data-name="Path 46" d="M162.76 86.731l-7.09-16.921a1.222 1.222 0 00-1.233-.88 1.278 1.278 0 00-1.232.88l-7.065 16.872a1.622 1.622 0 00-.125.578 1.3 1.3 0 00.364.917 1.2 1.2 0 00.918.39 1.259 1.259 0 00.7-.214 1.406 1.406 0 00.5-.591l1.433-3.52.88-2.162 3.671-8.951 3.6 8.951.88 2.162 1.408 3.52a1.215 1.215 0 00.491.591 1.318 1.318 0 00.716.214 1.264 1.264 0 00.93-.377 1.238 1.238 0 00.378-.906 1.589 1.589 0 00-.124-.553z" fill="#fff"/></g></g></g></svg>